<?xml version="1.0" encoding="UTF-8"?>
<svg id="Layer_1" data-name="Layer 1" xmlns="http://www.w3.org/2000/svg" viewBox="0 0 791.67 791.67">
  <defs>
    <style>
      .cls-1 {
        fill: none;
      }

      .cls-2 {
        fill: #29abe2;
        stroke: #29abe2;
      }

      .cls-2, .cls-3 {
        stroke-miterlimit: 1;
        stroke-width: 50px;
      }

      .cls-3 {
        fill: #005787;
        stroke: #005787;
      }
    </style>
  </defs>
  <g>
    <path class="cls-3" d="M402.1,195.5v93.59c-2.07-.12-4.16-.18-6.26-.18s-4.19,.06-6.26,.18v-93.59c0-3.46,2.8-6.26,6.26-6.26,1.73,0,3.3,.7,4.43,1.83s1.83,2.7,1.83,4.43Z"/>
    <path class="cls-2" d="M395.84,502.77c2.1,0,4.19-.06,6.26-.18v93.59c0,3.45-2.8,6.26-6.26,6.26s-6.26-2.8-6.26-6.26v-93.59c2.07,.12,4.16,.18,6.26,.18Z"/>
    <path class="cls-2" d="M289.09,389.58c-.12,2.07-.18,4.16-.18,6.26s.06,4.19,.18,6.26h-93.59c-3.45,0-6.26-2.8-6.26-6.26s2.8-6.26,6.26-6.26h93.59Z"/>
    <path class="cls-2" d="M602.43,395.84c0,1.73-.7,3.3-1.83,4.42-1.13,1.13-2.7,1.83-4.42,1.83h-93.59c.12-2.07,.18-4.16,.18-6.26s-.06-4.19-.18-6.26h93.59c3.45,0,6.26,2.8,6.26,6.26Z"/>
    <path class="cls-2" d="M466.89,315.93l66.18-66.18c2.44-2.44,6.41-2.44,8.85,0,1.22,1.22,1.83,2.82,1.83,4.42s-.61,3.21-1.83,4.43l-66.17,66.17"/>
    <path class="cls-2" d="M324.78,475.74l-66.18,66.18c-2.44,2.45-6.41,2.45-8.85,0-2.44-2.44-2.44-6.41,0-8.85l66.17-66.17c2.78,3.12,5.74,6.08,8.86,8.85Z"/>
    <path class="cls-2" d="M258.6,249.75l66.18,66.18c-3.12,2.78-6.08,5.73-8.86,8.85l-66.17-66.17c-2.44-2.44-2.44-6.41,0-8.85,1.23-1.22,2.83-1.83,4.43-1.83s3.2,.61,4.42,1.83Z"/>
    <path class="cls-2" d="M541.92,541.92c-2.45,2.45-6.41,2.45-8.85,0l-66.18-66.18c3.12-2.77,6.08-5.73,8.86-8.85l66.17,66.17c2.44,2.45,2.44,6.41,0,8.85Z"/>
  </g>
  <rect class="cls-1" width="791.67" height="791.67"/>
</svg>